<svg xmlns="http://www.w3.org/2000/svg" viewBox="0 0 1200 500" width="1200" height="500"><defs><radialGradient id="a62" cx="0.4" cy="0.3" r="0.9"><stop offset="0" stop-color="#8FD9F0" stop-opacity="0.34"/><stop offset="1" stop-color="#0C0C0C" stop-opacity="0"/></radialGradient><linearGradient id="b62" x1="0" y1="1" x2="0" y2="0"><stop offset="0" stop-color="#8FD9F0" stop-opacity="0.25"/><stop offset="1" stop-color="#8FD9F0"/></linearGradient><linearGradient id="face8FD9F0" x1="0" y1="0" x2="0.4" y2="1"><stop offset="0" stop-color="#8FD9F0"/><stop offset="0.55" stop-color="#8FD9F0" stop-opacity="0.75"/><stop offset="1" stop-color="#ffffff" stop-opacity="0.35"/></linearGradient><linearGradient id="edge8FD9F0" x1="0" y1="0" x2="0" y2="1"><stop offset="0" stop-color="#8FD9F0" stop-opacity="0.5"/><stop offset="1" stop-color="#8FD9F0" stop-opacity="0.15"/></linearGradient></defs><rect width="1200" height="500" fill="#0C0C0C"/><rect width="1200" height="500" fill="url(#a62)"/><polyline points="600.0,250.0 600.3,250.0 600.7,250.0 601.0,250.1 601.4,250.1 601.7,250.2 602.0,250.3 602.3,250.4 602.6,250.6 602.9,250.7 603.2,250.9 603.5,251.0 603.7,251.2 603.9,251.4 604.2,251.7 604.4,251.9 604.5,252.1 604.7,252.4 604.8,252.7 604.9,252.9 605.0,253.2 605.0,253.5 605.0,253.8 605.0,254.1 605.0,254.4 605.0,254.7 604.9,255.0 604.7,255.4 604.6,255.7 604.4,256.0 604.2,256.3 604.0,256.6 603.7,257.0 603.4,257.3 603.1,257.6 602.7,257.9 602.3,258.2 601.9,258.4 601.4,258.7 601.0,259.0 600.4,259.2 599.9,259.5 599.4,259.7 598.8,259.9 598.2,260.1 597.5,260.3 596.9,260.4 596.2,260.5 595.5,260.7 594.8,260.8 594.0,260.8 593.3,260.9 592.5,260.9 591.7,260.9 590.9,260.9 590.1,260.9 589.3,260.8 588.5,260.7 587.7,260.6 586.9,260.4 586.0,260.3 585.2,260.1 584.4,259.8 583.6,259.6 582.8,259.3 582.0,259.0 581.2,258.6 580.4,258.3 579.6,257.9 578.9,257.5 578.2,257.0 577.5,256.5 576.8,256.0 576.1,255.5 575.5,255.0 574.9,254.4 574.3,253.8 573.8,253.2 573.3,252.5 572.8,251.9 572.4,251.2 572.0,250.5 571.6,249.8 571.3,249.0 571.0,248.3 570.8,247.5 570.6,246.7 570.5,245.9 570.4,245.1 570.4,244.3 570.4,243.5 570.5,242.6 570.6,241.8 570.8,240.9 571.0,240.1 571.3,239.3 571.7,238.4 572.1,237.6 572.5,236.7 573.1,235.9 573.6,235.1 574.3,234.2 574.9,233.4 575.7,232.6 576.5,231.8 577.3,231.1 578.2,230.3 579.2,229.6 580.2,228.9 581.2,228.2 582.4,227.5 583.5,226.9 584.7,226.2 586.0,225.7 587.3,225.1 588.6,224.6 590.0,224.1 591.5,223.6 592.9,223.2 594.4,222.8 596.0,222.4 597.5,222.1 599.2,221.9 600.8,221.6 602.4,221.4 604.1,221.3 605.8,221.2 607.5,221.1 609.3,221.1 611.0,221.1 612.8,221.2 614.5,221.4 616.3,221.5 618.1,221.8 619.8,222.0 621.6,222.4 623.3,222.7 625.1,223.2 626.8,223.6 628.5,224.2 630.2,224.7 631.8,225.3 633.5,226.0 635.1,226.7 636.7,227.5 638.2,228.3 639.7,229.1 641.1,230.0 642.5,231.0 643.9,232.0 645.2,233.0 646.5,234.0 647.7,235.2 648.8,236.3 649.9,237.5 650.9,238.7 651.8,239.9 652.7,241.2 653.5,242.5 654.3,243.9 654.9,245.2 655.5,246.6 656.0,248.0 656.4,249.5 656.8,250.9 657.0,252.4 657.2,253.9 657.2,255.4 657.2,256.9 657.1,258.4 656.9,259.9 656.7,261.4 656.3,262.9 655.8,264.5 655.3,266.0 654.6,267.5 653.9,269.0 653.0,270.5 652.1,271.9 651.1,273.4 650.0,274.8 648.8,276.2 647.5,277.6 646.1,278.9 644.7,280.3 643.1,281.6 641.5,282.8 639.8,284.0 638.0,285.2 636.1,286.4 634.2,287.5 632.2,288.5 630.1,289.5 627.9,290.5 625.7,291.4 623.4,292.2 621.1,293.0 618.7,293.7 616.2,294.4 613.7,295.0 611.1,295.6 608.6,296.0 605.9,296.4 603.3,296.8 600.6,297.1 597.8,297.3 595.1,297.4 592.3,297.5 589.5,297.5 586.7,297.4 583.9,297.3 581.1,297.0 578.3,296.7 575.5,296.4 572.7,295.9 570.0,295.4 567.2,294.8 564.5,294.1 561.8,293.4 559.1,292.6 556.5,291.7 553.9,290.7 551.4,289.7 548.9,288.6 546.5,287.4 544.1,286.2 541.8,284.9 539.6,283.5 537.4,282.1 535.4,280.6 533.3,279.0 531.4,277.4 529.6,275.7 527.8,274.0 526.2,272.3 524.6,270.4 523.2,268.6 521.9,266.7 520.6,264.7 519.5,262.7 518.5,260.7 517.6,258.6 516.8,256.5 516.1,254.4 515.6,252.3 515.2,250.1 514.9,247.9 514.7,245.7 514.7,243.5 514.8,241.3 515.0,239.1 515.4,236.8 515.9,234.6 516.5,232.4 517.2,230.2 518.1,228.0 519.1,225.8 520.3,223.7 521.6,221.5 523.0,219.4" fill="none" stroke="#8FD9F0" stroke-opacity="0.55" stroke-width="3"/><ellipse cx="600.0" cy="306.0" rx="80.0" ry="32.0" fill="url(#edge8FD9F0)"/><ellipse cx="600.0" cy="292.0" rx="80.0" ry="32.0" fill="url(#edge8FD9F0)"/><ellipse cx="600.0" cy="278.0" rx="80.0" ry="32.0" fill="url(#edge8FD9F0)"/><ellipse cx="600.0" cy="264.0" rx="80.0" ry="32.0" fill="url(#edge8FD9F0)"/><ellipse cx="600.0" cy="250.0" rx="80.0" ry="32.0" fill="url(#face8FD9F0)"/><ellipse cx="600.0" cy="250.0" rx="65.6" ry="26.24" fill="none" stroke="#0C0C0C" stroke-opacity="0.35" stroke-width="1.5"/><text x="600.0" y="260.88" text-anchor="middle" font-family="Kanit, 'Segoe UI', system-ui, sans-serif" font-weight="900" font-size="66" fill="#0C0C0C" fill-opacity="0.72" transform="scale(1,0.62)" transform-origin="600.0 250.0">£</text></svg>