<svg xmlns="http://www.w3.org/2000/svg" viewBox="0 0 620 720" width="620" height="720"><defs><linearGradient id="face7CE0A6" x1="0" y1="0" x2="0.4" y2="1"><stop offset="0" stop-color="#7CE0A6"/><stop offset="0.55" stop-color="#7CE0A6" stop-opacity="0.75"/><stop offset="1" stop-color="#ffffff" stop-opacity="0.35"/></linearGradient><linearGradient id="edge7CE0A6" x1="0" y1="0" x2="0" y2="1"><stop offset="0" stop-color="#7CE0A6" stop-opacity="0.5"/><stop offset="1" stop-color="#7CE0A6" stop-opacity="0.15"/></linearGradient><linearGradient id="faceE9C25C" x1="0" y1="0" x2="0.4" y2="1"><stop offset="0" stop-color="#E9C25C"/><stop offset="0.55" stop-color="#E9C25C" stop-opacity="0.75"/><stop offset="1" stop-color="#ffffff" stop-opacity="0.35"/></linearGradient><linearGradient id="edgeE9C25C" x1="0" y1="0" x2="0" y2="1"><stop offset="0" stop-color="#E9C25C" stop-opacity="0.5"/><stop offset="1" stop-color="#E9C25C" stop-opacity="0.15"/></linearGradient><linearGradient id="face8FD9F0" x1="0" y1="0" x2="0.4" y2="1"><stop offset="0" stop-color="#8FD9F0"/><stop offset="0.55" stop-color="#8FD9F0" stop-opacity="0.75"/><stop offset="1" stop-color="#ffffff" stop-opacity="0.35"/></linearGradient><linearGradient id="edge8FD9F0" x1="0" y1="0" x2="0" y2="1"><stop offset="0" stop-color="#8FD9F0" stop-opacity="0.5"/><stop offset="1" stop-color="#8FD9F0" stop-opacity="0.15"/></linearGradient><radialGradient id="halo" cx="0.5" cy="0.5" r="0.5"><stop offset="0" stop-color="#7CE0A6" stop-opacity="0.42"/><stop offset="0.6" stop-color="#12A85F" stop-opacity="0.12"/><stop offset="1" stop-color="#0C0C0C" stop-opacity="0"/></radialGradient><linearGradient id="orb" x1="0.2" y1="0" x2="0.8" y2="1"><stop offset="0" stop-color="#F4FFF7"/><stop offset="0.45" stop-color="#7CE0A6"/><stop offset="1" stop-color="#116B41"/></linearGradient><linearGradient id="note" x1="0" y1="0" x2="1" y2="1"><stop offset="0" stop-color="#CFE8C4" stop-opacity="0.95"/><stop offset="1" stop-color="#5E8F72" stop-opacity="0.85"/></linearGradient></defs><rect width="620" height="720" fill="none"/><ellipse cx="310" cy="330" rx="300" ry="300" fill="url(#halo)"/><g transform="translate(78 214) rotate(-17)" opacity="0.5"><rect width="150" height="76" rx="9" fill="url(#note)"/><circle cx="75" cy="38" r="22" fill="none" stroke="#0C0C0C" stroke-opacity="0.4"/><circle cx="75" cy="38" r="15" fill="none" stroke="#0C0C0C" stroke-opacity="0.25"/><rect x="12" y="12" width="126" height="52" rx="5" fill="none" stroke="#0C0C0C" stroke-opacity="0.3"/></g><g transform="translate(470 176) rotate(13)" opacity="0.42"><rect width="150" height="76" rx="9" fill="url(#note)"/><circle cx="75" cy="38" r="22" fill="none" stroke="#0C0C0C" stroke-opacity="0.4"/><circle cx="75" cy="38" r="15" fill="none" stroke="#0C0C0C" stroke-opacity="0.25"/><rect x="12" y="12" width="126" height="52" rx="5" fill="none" stroke="#0C0C0C" stroke-opacity="0.3"/></g><g transform="translate(516 430) rotate(-9)" opacity="0.34"><rect width="150" height="76" rx="9" fill="url(#note)"/><circle cx="75" cy="38" r="22" fill="none" stroke="#0C0C0C" stroke-opacity="0.4"/><circle cx="75" cy="38" r="15" fill="none" stroke="#0C0C0C" stroke-opacity="0.25"/><rect x="12" y="12" width="126" height="52" rx="5" fill="none" stroke="#0C0C0C" stroke-opacity="0.3"/></g><g transform="translate(46 452) rotate(8)" opacity="0.3"><rect width="150" height="76" rx="9" fill="url(#note)"/><circle cx="75" cy="38" r="22" fill="none" stroke="#0C0C0C" stroke-opacity="0.4"/><circle cx="75" cy="38" r="15" fill="none" stroke="#0C0C0C" stroke-opacity="0.25"/><rect x="12" y="12" width="126" height="52" rx="5" fill="none" stroke="#0C0C0C" stroke-opacity="0.3"/></g><polyline points="372.0,316.0 373.5,318.0 374.9,320.2 376.1,322.4 377.1,324.7 377.8,327.0 378.3,329.4 378.4,331.7 378.1,334.0 377.5,336.2 376.6,338.3 375.3,340.3 373.8,342.1 371.9,343.8 369.9,345.3 367.6,346.6 365.2,347.7 362.7,348.7 360.2,349.5 357.6,350.2 355.1,350.8 352.7,351.4 350.4,351.9 348.3,352.5 346.3,353.1 344.4,353.7 342.7,354.5 341.2,355.4 339.7,356.5 338.4,357.8 337.1,359.2 335.9,360.8 334.6,362.5 333.4,364.3 332.1,366.3 330.7,368.2 329.2,370.2 327.5,372.2 325.7,374.1 323.8,375.8 321.8,377.4 319.6,378.8 317.3,379.9 314.9,380.7 312.5,381.2 310.0,381.3 307.5,381.2 305.1,380.7 302.7,379.9 300.4,378.8 298.2,377.4 296.2,375.8 294.3,374.1 292.5,372.2 290.8,370.2 289.3,368.2 287.9,366.3 286.6,364.3 285.4,362.5 284.1,360.8 282.9,359.2 281.6,357.8 280.3,356.5 278.8,355.4 277.3,354.5 275.6,353.7 273.7,353.1 271.7,352.5 269.6,351.9 267.3,351.4 264.9,350.8 262.4,350.2 259.8,349.5 257.3,348.7 254.8,347.7 252.4,346.6 250.1,345.3 248.1,343.8 246.2,342.1 244.7,340.3 243.4,338.3 242.5,336.2 241.9,334.0 241.6,331.7 241.7,329.4 242.2,327.0 242.9,324.7 243.9,322.4 245.1,320.2 246.5,318.0 248.0,316.0 249.6,314.1 251.2,312.2 252.8,310.5 254.3,308.8 255.7,307.2 257.0,305.6 258.0,304.1 258.9,302.5 259.6,300.9 260.1,299.3 260.4,297.5 260.5,295.7 260.5,293.8 260.4,291.7 260.2,289.6 260.0,287.3 259.9,284.9 259.8,282.5 259.9,280.0 260.1,277.5 260.6,275.1 261.2,272.7 262.1,270.4 263.3,268.3 264.7,266.3 266.4,264.6 268.3,263.2 270.4,262.0 272.7,261.0 275.1,260.4 277.7,260.0 280.3,259.9 283.0,260.1 285.6,260.5 288.3,261.0 290.8,261.8 293.3,262.6 295.7,263.4 298.0,264.3 300.2,265.1 302.3,265.8 304.3,266.4 306.3,266.9 308.1,267.1 310.0,267.2 311.9,267.1 313.7,266.9 315.7,266.4 317.7,265.8 319.8,265.1 322.0,264.3 324.3,263.4 326.7,262.6 329.2,261.8 331.7,261.0 334.4,260.5 337.0,260.1 339.7,259.9 342.3,260.0 344.9,260.4 347.3,261.0 349.6,262.0 351.7,263.2 353.6,264.6 355.3,266.3 356.7,268.3 357.9,270.4 358.8,272.7 359.4,275.1 359.9,277.5 360.1,280.0 360.2,282.5 360.1,284.9 360.0,287.3 359.8,289.5 359.6,291.7 359.5,293.8 359.5,295.7 359.6,297.5 359.9,299.3 360.4,300.9 361.1,302.5 362.0,304.1 363.0,305.6 364.3,307.2 365.7,308.8 367.2,310.5 368.8,312.2 370.4,314.1 372.0,316.0" fill="none" stroke="#7CE0A6" stroke-width="0.7" opacity="0.22"/><polyline points="388.8,316.0 390.1,318.6 390.9,321.2 391.3,323.9 391.2,326.5 390.6,329.1 389.6,331.6 388.1,333.9 386.2,336.1 383.9,338.1 381.5,339.9 378.8,341.6 376.1,343.1 373.4,344.4 370.7,345.7 368.2,346.9 365.9,348.1 363.8,349.4 362.0,350.8 360.4,352.3 359.1,353.9 358.1,355.8 357.2,357.9 356.4,360.2 355.7,362.7 355.0,365.3 354.2,368.0 353.3,370.8 352.2,373.6 350.9,376.3 349.4,378.8 347.6,381.1 345.6,383.1 343.2,384.7 340.7,385.9 338.0,386.8 335.1,387.2 332.2,387.1 329.2,386.7 326.2,386.0 323.2,384.9 320.3,383.6 317.6,382.2 314.9,380.7 312.4,379.2 310.0,377.8 307.7,376.6 305.5,375.6 303.3,374.8 301.1,374.3 298.9,374.1 296.6,374.2 294.1,374.5 291.6,375.0 288.9,375.7 286.1,376.5 283.1,377.2 280.0,377.9 276.9,378.4 273.7,378.7 270.6,378.8 267.6,378.5 264.7,377.9 262.0,376.8 259.5,375.4 257.4,373.7 255.6,371.6 254.1,369.2 253.0,366.6 252.2,363.9 251.7,361.0 251.5,358.0 251.5,355.1 251.6,352.3 251.7,349.5 251.8,346.9 251.8,344.5 251.7,342.2 251.3,340.0 250.7,338.1 249.7,336.2 248.5,334.4 247.0,332.6 245.2,330.9 243.2,329.1 241.1,327.2 238.9,325.2 236.8,323.1 234.7,320.8 232.8,318.5 231.2,316.0 229.9,313.4 229.1,310.8 228.7,308.1 228.8,305.5 229.4,302.9 230.4,300.4 231.9,298.1 233.8,295.9 236.1,293.9 238.5,292.1 241.2,290.4 243.9,288.9 246.6,287.6 249.3,286.3 251.8,285.1 254.1,283.9 256.2,282.6 258.0,281.2 259.6,279.7 260.9,278.1 261.9,276.2 262.8,274.1 263.6,271.8 264.3,269.3 265.0,266.7 265.8,264.0 266.7,261.2 267.8,258.4 269.1,255.7 270.6,253.2 272.4,250.9 274.4,248.9 276.8,247.3 279.3,246.1 282.0,245.2 284.9,244.8 287.8,244.9 290.8,245.3 293.8,246.0 296.8,247.1 299.7,248.4 302.4,249.8 305.1,251.3 307.6,252.8 310.0,254.2 312.3,255.4 314.5,256.4 316.7,257.2 318.9,257.7 321.1,257.9 323.4,257.8 325.9,257.5 328.4,257.0 331.1,256.3 333.9,255.5 336.9,254.8 340.0,254.1 343.1,253.6 346.3,253.3 349.4,253.2 352.4,253.5 355.3,254.1 358.0,255.2 360.5,256.6 362.6,258.3 364.4,260.4 365.9,262.8 367.0,265.4 367.8,268.1 368.3,271.0 368.5,274.0 368.5,276.9 368.4,279.7 368.3,282.5 368.2,285.1 368.2,287.5 368.3,289.8 368.7,292.0 369.3,293.9 370.3,295.8 371.5,297.6 373.0,299.4 374.8,301.1 376.8,302.9 378.9,304.8 381.1,306.8 383.2,308.9 385.3,311.2 387.2,313.5 388.8,316.0" fill="none" stroke="#7CE0A6" stroke-width="0.7" opacity="0.22"/><polyline points="402.9,316.0 402.9,319.0 402.3,321.9 401.1,324.8 399.3,327.6 397.1,330.1 394.6,332.5 391.8,334.8 388.9,336.8 386.1,338.8 383.5,340.6 381.1,342.4 379.1,344.3 377.5,346.3 376.3,348.4 375.4,350.8 374.9,353.3 374.7,356.1 374.6,359.2 374.5,362.4 374.4,365.7 374.1,369.1 373.5,372.4 372.6,375.6 371.2,378.5 369.4,381.2 367.2,383.4 364.6,385.2 361.6,386.4 358.4,387.2 354.9,387.5 351.3,387.4 347.6,387.0 344.0,386.3 340.5,385.5 337.2,384.7 334.0,384.0 331.0,383.5 328.2,383.3 325.6,383.5 323.0,384.1 320.5,385.0 318.0,386.4 315.5,388.0 312.8,389.9 310.0,391.9 307.0,393.8 303.9,395.7 300.7,397.2 297.4,398.4 294.1,399.2 290.7,399.4 287.5,399.0 284.4,398.1 281.5,396.6 278.9,394.6 276.6,392.1 274.5,389.4 272.6,386.5 271.0,383.4 269.6,380.4 268.2,377.6 266.8,374.9 265.3,372.6 263.7,370.6 261.8,368.9 259.6,367.5 257.2,366.3 254.4,365.4 251.3,364.6 248.0,363.9 244.5,363.1 241.0,362.1 237.5,361.0 234.3,359.5 231.3,357.8 228.7,355.8 226.6,353.4 225.0,350.8 224.1,347.9 223.8,344.9 224.0,341.7 224.7,338.5 225.8,335.3 227.3,332.2 228.8,329.2 230.5,326.3 232.0,323.5 233.3,320.9 234.3,318.4 234.9,316.0 235.0,313.6 234.7,311.2 234.0,308.7 233.0,306.0 231.7,303.3 230.2,300.4 228.8,297.4 227.4,294.2 226.3,291.0 225.6,287.7 225.3,284.5 225.6,281.4 226.5,278.5 227.9,275.9 229.9,273.5 232.5,271.4 235.4,269.7 238.6,268.3 242.1,267.2 245.7,266.3 249.2,265.7 252.6,265.0 255.8,264.4 258.8,263.7 261.4,262.8 263.8,261.6 265.9,260.1 267.7,258.3 269.3,256.1 270.9,253.7 272.4,250.9 274.0,248.1 275.7,245.1 277.6,242.2 279.7,239.5 282.1,237.0 284.7,234.9 287.6,233.4 290.7,232.3 293.9,231.9 297.2,232.0 300.5,232.7 303.8,233.8 306.9,235.4 310.0,237.3 312.9,239.4 315.7,241.5 318.3,243.5 320.8,245.4 323.2,247.0 325.7,248.2 328.1,249.0 330.7,249.5 333.5,249.6 336.4,249.3 339.5,248.8 342.8,248.2 346.3,247.5 349.9,247.0 353.6,246.6 357.2,246.5 360.7,246.8 364.1,247.6 367.1,248.8 369.8,250.5 372.0,252.6 373.9,255.2 375.2,258.1 376.1,261.2 376.7,264.5 376.9,267.9 376.9,271.3 376.8,274.5 376.7,277.6 376.8,280.5 377.0,283.2 377.6,285.7 378.5,287.9 379.9,290.0 381.6,292.0 383.8,294.0 386.2,295.9 388.8,297.9 391.6,300.0 394.3,302.3 396.8,304.8 399.1,307.4 400.9,310.2 402.2,313.0 402.9,316.0" fill="none" stroke="#7CE0A6" stroke-width="0.7" opacity="0.22"/><polyline points="412.8,316.0 411.8,319.3 410.5,322.5 408.9,325.6 407.1,328.6 405.0,331.4 402.9,334.2 400.6,336.8 398.3,339.3 396.0,341.7 393.8,344.1 391.7,346.4 389.6,348.6 387.8,350.9 386.0,353.2 384.5,355.6 383.1,358.0 381.8,360.5 380.6,363.2 379.5,365.9 378.4,368.8 377.3,371.7 376.2,374.8 374.9,377.9 373.6,381.0 372.1,384.1 370.4,387.1 368.5,390.1 366.4,392.9 364.0,395.5 361.4,397.9 358.6,400.1 355.5,401.9 352.3,403.4 348.9,404.6 345.4,405.4 341.8,405.9 338.1,406.1 334.4,405.9 330.7,405.5 327.0,404.8 323.4,403.9 319.9,402.9 316.5,401.7 313.2,400.5 310.0,399.2 306.9,398.0 303.9,396.8 300.9,395.8 298.0,394.8 295.0,394.0 292.1,393.4 289.2,392.9 286.1,392.6 283.0,392.3 279.9,392.2 276.6,392.1 273.2,392.1 269.7,392.0 266.1,391.9 262.5,391.7 258.8,391.4 255.1,390.8 251.5,390.1 247.9,389.1 244.5,387.8 241.2,386.3 238.1,384.5 235.3,382.4 232.7,380.0 230.4,377.4 228.5,374.6 226.9,371.6 225.6,368.4 224.6,365.1 223.9,361.7 223.4,358.3 223.3,354.9 223.3,351.5 223.4,348.2 223.7,344.9 224.0,341.7 224.3,338.6 224.5,335.6 224.7,332.7 224.8,329.8 224.7,327.0 224.5,324.3 224.1,321.5 223.5,318.8 222.8,316.0 221.9,313.2 221.0,310.3 220.0,307.3 218.9,304.2 217.9,301.1 217.0,297.8 216.3,294.5 215.7,291.1 215.3,287.7 215.3,284.3 215.5,280.9 216.1,277.5 217.0,274.3 218.3,271.1 219.9,268.2 221.9,265.4 224.2,262.8 226.9,260.4 229.7,258.3 232.8,256.4 236.1,254.8 239.5,253.3 243.0,252.1 246.5,251.1 250.0,250.2 253.4,249.4 256.8,248.7 260.1,248.0 263.3,247.3 266.4,246.5 269.4,245.7 272.2,244.8 275.0,243.7 277.7,242.5 280.4,241.2 283.0,239.7 285.7,238.1 288.4,236.3 291.2,234.5 294.0,232.7 297.0,230.8 300.1,229.0 303.3,227.3 306.6,225.8 310.0,224.4 313.5,223.3 317.1,222.5 320.7,221.9 324.4,221.7 328.0,221.9 331.6,222.4 335.1,223.3 338.5,224.5 341.8,226.1 344.8,227.9 347.7,230.1 350.5,232.4 353.0,234.9 355.3,237.6 357.5,240.3 359.5,243.1 361.4,245.9 363.2,248.7 364.9,251.3 366.6,253.9 368.3,256.4 370.1,258.7 372.0,261.0 373.9,263.1 376.0,265.1 378.2,267.0 380.6,268.8 383.1,270.7 385.7,272.5 388.4,274.3 391.2,276.3 394.0,278.3 396.8,280.4 399.6,282.7 402.2,285.1 404.7,287.7 406.9,290.4 408.9,293.3 410.6,296.3 411.9,299.5 412.9,302.7 413.4,306.0 413.6,309.3 413.4,312.7 412.8,316.0" fill="none" stroke="#7CE0A6" stroke-width="0.7" opacity="0.22"/><polyline points="419.0,316.0 417.1,319.4 415.0,322.8 412.9,325.9 410.7,329.0 408.6,332.0 406.7,334.9 405.0,337.8 403.5,340.7 402.3,343.6 401.3,346.6 400.6,349.7 400.1,352.9 399.7,356.2 399.4,359.7 399.2,363.4 398.9,367.1 398.5,370.9 397.8,374.7 396.9,378.5 395.7,382.1 394.1,385.6 392.1,388.9 389.7,391.9 386.9,394.6 383.8,396.9 380.4,398.9 376.7,400.4 372.7,401.6 368.7,402.4 364.5,402.9 360.3,403.1 356.2,403.1 352.1,402.9 348.1,402.8 344.3,402.6 340.6,402.5 337.0,402.6 333.5,402.8 330.2,403.3 326.9,404.0 323.6,405.0 320.3,406.2 317.0,407.6 313.5,409.1 310.0,410.7 306.3,412.4 302.6,413.9 298.7,415.3 294.7,416.5 290.6,417.3 286.5,417.8 282.4,417.9 278.4,417.5 274.5,416.6 270.7,415.3 267.2,413.5 263.9,411.3 260.8,408.8 258.0,405.9 255.5,402.9 253.2,399.6 251.1,396.3 249.2,393.0 247.4,389.7 245.6,386.6 243.8,383.6 242.0,380.8 240.0,378.2 237.9,375.7 235.6,373.5 233.0,371.3 230.2,369.3 227.3,367.3 224.1,365.4 220.8,363.4 217.5,361.3 214.1,359.0 210.8,356.6 207.7,354.0 204.9,351.2 202.4,348.2 200.3,344.9 198.7,341.5 197.5,338.0 196.9,334.3 196.8,330.6 197.2,326.9 198.1,323.2 199.4,319.6 201.0,316.0 202.9,312.6 205.0,309.2 207.1,306.1 209.3,303.0 211.4,300.0 213.3,297.1 215.0,294.2 216.5,291.3 217.7,288.4 218.7,285.4 219.4,282.3 219.9,279.1 220.3,275.8 220.6,272.3 220.8,268.6 221.1,264.9 221.5,261.1 222.2,257.3 223.1,253.5 224.3,249.9 225.9,246.4 227.9,243.1 230.3,240.1 233.1,237.4 236.2,235.1 239.6,233.1 243.3,231.6 247.3,230.4 251.3,229.6 255.5,229.1 259.7,228.9 263.8,228.9 267.9,229.1 271.9,229.2 275.7,229.4 279.4,229.5 283.0,229.4 286.5,229.2 289.8,228.7 293.1,228.0 296.4,227.0 299.7,225.8 303.0,224.4 306.5,222.9 310.0,221.3 313.7,219.6 317.4,218.1 321.3,216.7 325.3,215.5 329.4,214.7 333.5,214.2 337.6,214.1 341.6,214.5 345.5,215.4 349.3,216.7 352.8,218.5 356.1,220.7 359.2,223.2 362.0,226.1 364.5,229.1 366.8,232.4 368.9,235.7 370.8,239.0 372.6,242.3 374.4,245.4 376.2,248.4 378.0,251.2 380.0,253.8 382.1,256.3 384.4,258.5 387.0,260.7 389.8,262.7 392.7,264.7 395.9,266.6 399.2,268.6 402.5,270.7 405.9,273.0 409.2,275.4 412.3,278.0 415.1,280.8 417.6,283.8 419.7,287.1 421.3,290.5 422.5,294.0 423.1,297.7 423.2,301.4 422.8,305.1 421.9,308.8 420.6,312.4 419.0,316.0" fill="none" stroke="#7CE0A6" stroke-width="0.7" opacity="0.22"/><polyline points="423.8,316.0 421.8,319.6 420.0,323.1 418.4,326.5 417.2,329.9 416.4,333.3 415.9,336.7 415.9,340.3 416.1,344.0 416.6,347.9 417.1,351.9 417.7,356.0 418.1,360.3 418.3,364.6 418.0,368.8 417.3,373.0 416.1,377.0 414.3,380.7 411.9,384.1 409.0,387.2 405.6,389.8 401.7,392.0 397.5,393.8 393.2,395.2 388.7,396.4 384.1,397.3 379.7,398.1 375.5,398.9 371.4,399.8 367.6,400.8 364.1,402.1 360.7,403.8 357.5,405.7 354.5,408.0 351.5,410.5 348.5,413.3 345.4,416.3 342.2,419.3 338.8,422.2 335.2,424.9 331.3,427.3 327.3,429.3 323.1,430.7 318.8,431.6 314.4,431.8 310.0,431.4 305.7,430.4 301.4,428.8 297.3,426.8 293.4,424.5 289.7,421.9 286.1,419.3 282.7,416.6 279.4,414.1 276.2,411.8 272.9,409.8 269.5,408.2 266.0,406.9 262.4,405.9 258.5,405.2 254.4,404.7 250.1,404.3 245.6,403.9 241.0,403.4 236.4,402.7 231.9,401.7 227.5,400.3 223.4,398.5 219.7,396.3 216.4,393.6 213.6,390.4 211.4,386.9 209.6,383.1 208.5,379.0 207.7,374.8 207.4,370.5 207.3,366.2 207.4,362.0 207.5,358.0 207.6,354.1 207.4,350.3 207.0,346.8 206.2,343.4 205.0,340.1 203.4,336.8 201.5,333.6 199.3,330.3 196.9,326.9 194.5,323.4 192.0,319.8 189.8,316.0 188.0,312.1 186.6,308.1 185.7,304.0 185.5,299.9 185.9,295.9 187.0,292.0 188.8,288.2 191.2,284.6 194.0,281.3 197.2,278.2 200.7,275.4 204.3,272.7 207.9,270.2 211.4,267.8 214.7,265.4 217.7,262.9 220.3,260.3 222.6,257.6 224.6,254.6 226.3,251.4 227.8,247.9 229.2,244.2 230.6,240.4 232.1,236.4 233.7,232.4 235.7,228.5 237.9,224.7 240.6,221.3 243.6,218.3 247.1,215.7 250.9,213.7 255.0,212.2 259.3,211.3 263.9,210.9 268.5,211.0 273.1,211.5 277.7,212.3 282.2,213.3 286.5,214.3 290.7,215.3 294.7,216.1 298.6,216.6 302.5,216.8 306.2,216.6 310.0,216.1 313.8,215.2 317.7,214.1 321.8,212.7 326.0,211.3 330.3,209.9 334.8,208.7 339.3,207.7 343.9,207.1 348.5,207.1 352.9,207.5 357.2,208.6 361.2,210.2 364.9,212.4 368.3,215.1 371.4,218.2 374.1,221.7 376.4,225.4 378.5,229.2 380.5,233.0 382.3,236.8 384.1,240.3 385.9,243.7 388.0,246.7 390.3,249.5 392.8,252.0 395.7,254.4 399.0,256.5 402.5,258.6 406.2,260.7 410.0,262.9 413.9,265.2 417.7,267.7 421.3,270.4 424.5,273.4 427.3,276.7 429.5,280.3 431.1,284.0 432.0,288.0 432.3,292.1 432.0,296.2 431.0,300.4 429.6,304.4 427.9,308.4 425.9,312.3 423.8,316.0" fill="none" stroke="#7CE0A6" stroke-width="0.7" opacity="0.22"/><polyline points="430.2,316.0 429.4,319.8 428.8,323.6 428.3,327.4 428.0,331.3 427.8,335.1 427.6,339.0 427.6,343.0 427.6,347.0 427.5,351.1 427.5,355.3 427.3,359.6 427.0,363.9 426.5,368.3 425.8,372.7 424.8,377.0 423.5,381.3 421.9,385.4 419.9,389.5 417.6,393.3 414.9,396.9 411.8,400.3 408.4,403.5 404.8,406.3 400.8,408.8 396.7,411.0 392.3,412.9 387.8,414.6 383.2,415.9 378.6,417.0 373.9,417.9 369.3,418.6 364.7,419.2 360.2,419.7 355.8,420.2 351.4,420.6 347.1,421.1 342.9,421.7 338.8,422.3 334.7,423.1 330.7,424.0 326.6,424.9 322.6,426.0 318.5,427.2 314.3,428.4 310.0,429.7 305.6,430.9 301.2,432.1 296.6,433.2 292.0,434.1 287.2,434.8 282.4,435.3 277.6,435.5 272.8,435.4 268.0,434.9 263.3,434.0 258.7,432.8 254.3,431.1 250.0,429.2 246.0,426.8 242.1,424.2 238.6,421.2 235.2,418.0 232.2,414.6 229.4,411.0 226.8,407.2 224.4,403.4 222.2,399.6 220.2,395.8 218.3,392.0 216.4,388.2 214.6,384.6 212.8,381.0 210.9,377.5 209.0,374.1 206.9,370.7 204.8,367.5 202.5,364.2 200.1,361.0 197.7,357.8 195.1,354.5 192.5,351.1 189.8,347.7 187.2,344.2 184.7,340.5 182.3,336.7 180.1,332.8 178.1,328.8 176.5,324.6 175.1,320.3 174.2,316.0 173.6,311.6 173.5,307.2 173.8,302.8 174.5,298.5 175.7,294.2 177.2,290.0 179.2,286.0 181.5,282.1 184.1,278.4 186.9,274.8 190.0,271.4 193.2,268.1 196.4,265.0 199.8,262.1 203.1,259.2 206.4,256.5 209.7,253.7 212.8,251.0 215.8,248.3 218.7,245.6 221.6,242.7 224.3,239.8 226.9,236.9 229.5,233.8 232.1,230.6 234.7,227.3 237.4,224.0 240.1,220.6 242.9,217.3 245.9,213.9 249.1,210.7 252.5,207.5 256.1,204.6 259.9,201.8 263.8,199.3 268.0,197.1 272.4,195.3 276.9,193.8 281.5,192.7 286.2,192.0 291.0,191.7 295.8,191.8 300.6,192.3 305.3,193.1 310.0,194.2 314.6,195.6 319.0,197.2 323.4,199.0 327.6,200.9 331.7,202.9 335.7,204.9 339.5,207.0 343.4,209.0 347.1,210.9 350.9,212.7 354.6,214.4 358.4,216.0 362.2,217.5 366.1,218.9 370.1,220.2 374.2,221.5 378.4,222.7 382.6,224.0 387.0,225.4 391.3,226.8 395.7,228.4 400.1,230.2 404.4,232.2 408.5,234.4 412.5,236.8 416.3,239.6 419.9,242.5 423.2,245.8 426.1,249.3 428.6,253.0 430.8,256.9 432.6,261.0 434.0,265.2 435.0,269.5 435.6,273.9 435.9,278.4 435.9,282.8 435.6,287.2 435.1,291.5 434.4,295.8 433.6,300.0 432.7,304.1 431.8,308.2 431.0,312.1 430.2,316.0" fill="none" stroke="#7CE0A6" stroke-width="0.7" opacity="0.22"/><polyline points="440.2,316.0 440.6,320.2 441.3,324.4 442.1,328.8 443.0,333.2 444.0,337.7 444.9,342.4 445.6,347.1 446.1,351.9 446.3,356.7 446.1,361.6 445.5,366.4 444.4,371.1 442.8,375.6 440.7,379.9 438.0,384.0 434.9,387.8 431.4,391.3 427.4,394.5 423.2,397.4 418.8,400.0 414.1,402.3 409.5,404.4 404.8,406.3 400.1,408.1 395.6,409.8 391.2,411.6 386.9,413.4 382.8,415.3 378.9,417.4 375.1,419.7 371.4,422.2 367.7,424.8 364.0,427.6 360.3,430.6 356.5,433.6 352.6,436.6 348.5,439.6 344.3,442.4 339.8,445.0 335.2,447.3 330.3,449.2 325.4,450.6 320.3,451.6 315.2,452.1 310.0,452.0 304.9,451.4 299.8,450.4 294.8,448.8 290.0,446.9 285.3,444.6 280.9,442.1 276.6,439.4 272.4,436.6 268.4,433.8 264.5,431.1 260.6,428.5 256.8,426.0 252.9,423.7 249.0,421.6 244.9,419.7 240.7,418.0 236.4,416.4 231.9,414.9 227.3,413.4 222.6,411.9 217.8,410.3 212.9,408.5 208.1,406.5 203.5,404.2 199.0,401.7 194.8,398.8 191.0,395.6 187.5,392.0 184.5,388.2 182.0,384.0 179.9,379.6 178.4,375.0 177.4,370.3 176.8,365.5 176.6,360.7 176.7,355.8 177.1,351.1 177.6,346.4 178.3,341.8 178.9,337.3 179.4,332.9 179.9,328.6 180.1,324.4 180.1,320.2 179.8,316.0 179.4,311.8 178.7,307.6 177.9,303.2 177.0,298.8 176.0,294.3 175.1,289.6 174.4,284.9 173.9,280.1 173.7,275.3 173.9,270.4 174.5,265.6 175.6,260.9 177.2,256.4 179.3,252.1 182.0,248.0 185.1,244.2 188.6,240.7 192.6,237.5 196.8,234.6 201.2,232.0 205.9,229.7 210.5,227.6 215.2,225.7 219.9,223.9 224.4,222.2 228.8,220.4 233.1,218.6 237.2,216.7 241.1,214.6 244.9,212.3 248.6,209.8 252.3,207.2 256.0,204.4 259.7,201.4 263.5,198.4 267.4,195.4 271.5,192.4 275.7,189.6 280.2,187.0 284.8,184.7 289.7,182.8 294.6,181.4 299.7,180.4 304.8,179.9 310.0,180.0 315.1,180.6 320.2,181.6 325.2,183.2 330.0,185.1 334.7,187.4 339.1,189.9 343.4,192.6 347.6,195.4 351.6,198.2 355.5,200.9 359.4,203.5 363.2,206.0 367.1,208.3 371.0,210.4 375.1,212.3 379.3,214.0 383.6,215.6 388.1,217.1 392.7,218.6 397.4,220.1 402.2,221.7 407.1,223.5 411.9,225.5 416.5,227.8 421.0,230.3 425.2,233.2 429.0,236.4 432.5,240.0 435.5,243.8 438.0,248.0 440.1,252.4 441.6,257.0 442.6,261.7 443.2,266.5 443.4,271.3 443.3,276.2 442.9,280.9 442.4,285.6 441.7,290.2 441.1,294.7 440.6,299.1 440.1,303.4 439.9,307.6 439.9,311.8 440.2,316.0" fill="none" stroke="#7CE0A6" stroke-width="0.7" opacity="0.22"/><polyline points="454.3,316.0 456.1,320.7 457.9,325.5 459.6,330.5 461.1,335.5 462.3,340.7 462.9,345.9 463.0,351.1 462.5,356.2 461.2,361.2 459.3,366.0 456.6,370.5 453.4,374.8 449.7,378.7 445.6,382.3 441.1,385.7 436.6,388.8 431.9,391.7 427.4,394.5 423.0,397.2 418.9,400.1 415.0,403.0 411.4,406.1 408.1,409.5 405.0,413.1 402.0,416.9 399.2,421.0 396.3,425.2 393.3,429.6 390.1,433.9 386.6,438.1 382.8,442.0 378.7,445.6 374.3,448.8 369.5,451.4 364.4,453.5 359.0,454.9 353.5,455.6 347.9,455.8 342.2,455.4 336.6,454.6 331.0,453.4 325.5,452.0 320.2,450.5 315.0,449.0 310.0,447.6 305.0,446.4 300.2,445.6 295.3,445.0 290.3,444.8 285.3,444.9 280.1,445.2 274.8,445.7 269.4,446.3 263.8,446.8 258.1,447.1 252.4,447.2 246.7,446.8 241.1,446.0 235.7,444.6 230.6,442.6 225.8,440.0 221.4,436.9 217.4,433.3 213.9,429.2 210.8,424.8 208.1,420.2 205.7,415.4 203.5,410.6 201.5,405.8 199.6,401.2 197.6,396.8 195.4,392.6 193.0,388.6 190.4,384.8 187.4,381.1 184.1,377.6 180.5,374.1 176.7,370.6 172.8,367.0 168.9,363.2 165.1,359.3 161.6,355.1 158.5,350.7 155.9,346.1 153.9,341.3 152.6,336.4 152.0,331.3 152.1,326.2 152.9,321.0 154.3,316.0 156.3,311.1 158.6,306.3 161.3,301.6 164.0,297.1 166.8,292.8 169.5,288.5 171.9,284.3 174.1,280.1 175.9,275.9 177.4,271.6 178.5,267.1 179.4,262.5 180.1,257.7 180.7,252.7 181.3,247.7 182.1,242.5 183.2,237.3 184.7,232.2 186.6,227.3 189.1,222.6 192.1,218.3 195.6,214.4 199.7,210.9 204.3,208.0 209.2,205.5 214.5,203.5 219.9,201.9 225.5,200.7 231.1,199.8 236.6,199.0 242.0,198.3 247.2,197.6 252.2,196.7 257.1,195.5 261.8,194.1 266.3,192.4 270.8,190.3 275.3,188.0 279.8,185.4 284.5,182.8 289.2,180.1 294.2,177.5 299.3,175.1 304.6,173.1 310.0,171.6 315.5,170.6 321.1,170.2 326.6,170.5 332.1,171.5 337.4,173.1 342.5,175.3 347.4,177.9 352.1,181.0 356.5,184.3 360.7,187.8 364.8,191.3 368.7,194.7 372.6,197.9 376.5,200.9 380.6,203.6 384.7,206.0 389.1,208.1 393.7,210.0 398.6,211.7 403.6,213.4 408.8,215.1 414.1,216.8 419.3,218.9 424.5,221.2 429.4,223.8 434.0,226.9 438.1,230.3 441.8,234.2 444.8,238.5 447.2,243.1 449.0,248.0 450.1,253.1 450.8,258.3 451.0,263.6 450.8,268.8 450.5,274.0 450.0,279.1 449.6,284.0 449.4,288.7 449.3,293.4 449.7,297.9 450.3,302.4 451.4,306.9 452.7,311.4 454.3,316.0" fill="none" stroke="#7CE0A6" stroke-width="0.7" opacity="0.22"/><polyline points="471.2,316.0 472.6,321.2 473.8,326.5 474.7,331.9 475.3,337.4 475.4,342.8 475.2,348.3 474.5,353.7 473.3,359.1 471.7,364.3 469.6,369.4 467.1,374.4 464.1,379.1 460.8,383.7 457.2,388.0 453.2,392.1 449.0,395.9 444.6,399.6 440.1,403.0 435.5,406.2 430.9,409.3 426.2,412.3 421.6,415.1 417.0,417.9 412.5,420.7 408.0,423.5 403.6,426.3 399.3,429.1 395.1,432.1 390.9,435.1 386.6,438.1 382.4,441.3 378.1,444.4 373.7,447.6 369.2,450.8 364.6,454.0 359.8,457.0 354.8,459.9 349.7,462.6 344.4,465.1 339.0,467.2 333.4,469.0 327.7,470.5 321.8,471.6 315.9,472.2 310.0,472.4 304.1,472.2 298.2,471.5 292.4,470.4 286.6,468.9 281.1,467.0 275.6,464.8 270.3,462.3 265.2,459.6 260.3,456.7 255.5,453.7 250.9,450.6 246.4,447.4 242.0,444.3 237.7,441.1 233.4,438.0 229.2,435.0 224.9,432.0 220.7,429.1 216.3,426.3 211.9,423.5 207.4,420.8 202.9,418.1 198.3,415.3 193.6,412.4 188.9,409.5 184.2,406.4 179.6,403.1 175.1,399.7 170.7,396.1 166.6,392.2 162.6,388.1 159.0,383.8 155.7,379.2 152.8,374.4 150.4,369.5 148.3,364.3 146.7,359.1 145.6,353.7 145.0,348.3 144.8,342.8 145.0,337.3 145.5,331.9 146.5,326.5 147.7,321.2 149.2,316.0 150.8,310.9 152.6,305.9 154.5,301.0 156.4,296.1 158.3,291.4 160.2,286.7 162.0,282.1 163.8,277.4 165.4,272.8 167.0,268.1 168.5,263.4 170.0,258.6 171.4,253.8 172.9,248.9 174.4,243.9 176.0,238.9 177.7,233.9 179.6,228.9 181.8,223.8 184.2,218.9 186.9,214.0 189.9,209.3 193.3,204.8 197.0,200.5 201.0,196.5 205.4,192.8 210.1,189.5 215.0,186.5 220.2,183.8 225.6,181.6 231.2,179.7 236.9,178.2 242.7,177.0 248.6,176.2 254.5,175.6 260.3,175.3 266.1,175.1 271.8,175.2 277.5,175.3 283.1,175.5 288.6,175.7 294.0,175.9 299.4,176.0 304.7,176.1 310.0,176.2 315.3,176.1 320.6,176.0 326.0,175.8 331.5,175.5 337.0,175.3 342.6,175.0 348.2,174.9 354.0,174.9 359.8,175.0 365.7,175.3 371.5,175.9 377.4,176.8 383.2,178.0 388.9,179.5 394.4,181.5 399.8,183.7 405.0,186.4 409.9,189.5 414.6,192.9 418.9,196.6 422.9,200.6 426.6,205.0 429.9,209.5 432.9,214.2 435.6,219.1 438.0,224.0 440.1,229.0 442.1,234.1 443.8,239.1 445.4,244.1 446.9,249.0 448.4,253.9 449.9,258.7 451.4,263.4 452.9,268.1 454.6,272.8 456.3,277.4 458.1,282.0 459.9,286.7 461.9,291.4 463.8,296.1 465.8,300.9 467.7,305.9 469.5,310.9 471.2,316.0" fill="none" stroke="#7CE0A6" stroke-width="0.7" opacity="0.22"/><polyline points="487.9,316.0 489.1,321.8 489.7,327.6 489.8,333.4 489.2,339.2 488.1,344.9 486.3,350.5 484.0,355.9 481.2,361.2 478.0,366.2 474.4,371.0 470.5,375.7 466.4,380.1 462.2,384.3 458.0,388.4 453.8,392.4 449.8,396.3 445.8,400.3 442.1,404.3 438.4,408.3 435.0,412.5 431.7,416.8 428.4,421.2 425.2,425.8 422.0,430.4 418.7,435.2 415.2,439.9 411.6,444.6 407.7,449.2 403.5,453.6 399.0,457.8 394.1,461.6 389.0,465.0 383.5,467.9 377.8,470.4 371.8,472.3 365.7,473.7 359.4,474.6 353.1,475.0 346.7,474.9 340.4,474.5 334.1,473.7 327.9,472.6 321.8,471.4 315.9,470.1 310.0,468.8 304.2,467.5 298.6,466.4 292.9,465.3 287.3,464.5 281.7,463.8 276.0,463.3 270.2,463.0 264.3,462.7 258.3,462.4 252.2,462.2 246.0,461.8 239.7,461.2 233.4,460.4 227.2,459.3 221.0,457.8 215.0,455.8 209.3,453.4 203.7,450.5 198.6,447.2 193.8,443.4 189.4,439.3 185.4,434.7 181.9,429.8 178.7,424.7 176.0,419.4 173.6,414.0 171.5,408.6 169.6,403.1 167.8,397.7 166.2,392.4 164.5,387.2 162.7,382.1 160.9,377.1 158.9,372.2 156.7,367.3 154.3,362.5 151.7,357.7 149.1,352.9 146.3,348.0 143.5,343.0 140.7,337.9 138.2,332.6 135.8,327.2 133.7,321.7 132.1,316.0 130.9,310.2 130.3,304.4 130.2,298.6 130.8,292.8 131.9,287.1 133.7,281.5 136.0,276.1 138.8,270.8 142.0,265.8 145.6,261.0 149.5,256.3 153.6,251.9 157.8,247.7 162.0,243.6 166.2,239.6 170.2,235.7 174.2,231.7 177.9,227.7 181.6,223.7 185.0,219.5 188.3,215.2 191.6,210.8 194.8,206.2 198.0,201.6 201.3,196.8 204.8,192.1 208.4,187.4 212.3,182.8 216.5,178.4 221.0,174.2 225.9,170.4 231.0,167.0 236.5,164.1 242.2,161.6 248.2,159.7 254.3,158.3 260.6,157.4 266.9,157.0 273.3,157.1 279.6,157.5 285.9,158.3 292.1,159.4 298.2,160.6 304.1,161.9 310.0,163.2 315.8,164.5 321.4,165.6 327.1,166.7 332.7,167.5 338.3,168.2 344.0,168.7 349.8,169.0 355.7,169.3 361.7,169.6 367.8,169.8 374.0,170.2 380.3,170.8 386.6,171.6 392.8,172.7 399.0,174.2 405.0,176.2 410.7,178.6 416.3,181.5 421.4,184.8 426.2,188.6 430.6,192.7 434.6,197.3 438.1,202.2 441.3,207.3 444.0,212.6 446.4,218.0 448.5,223.4 450.4,228.9 452.2,234.3 453.8,239.6 455.5,244.8 457.3,249.9 459.1,254.9 461.1,259.8 463.3,264.7 465.7,269.5 468.3,274.3 470.9,279.1 473.7,284.0 476.5,289.0 479.3,294.1 481.8,299.4 484.2,304.8 486.3,310.3 487.9,316.0" fill="none" stroke="#7CE0A6" stroke-width="0.7" opacity="0.22"/><polyline points="501.9,316.0 501.8,322.2 501.0,328.3 499.5,334.3 497.3,340.2 494.5,345.9 491.3,351.4 487.7,356.8 483.9,361.9 480.1,366.9 476.4,371.7 472.8,376.5 469.5,381.3 466.4,386.2 463.7,391.2 461.2,396.3 459.0,401.6 456.8,407.1 454.8,412.8 452.6,418.5 450.3,424.3 447.7,430.1 444.8,435.8 441.4,441.2 437.5,446.3 433.1,451.0 428.2,455.2 422.8,458.8 417.0,461.9 410.8,464.4 404.3,466.3 397.7,467.7 391.0,468.7 384.2,469.4 377.6,469.8 371.0,470.2 364.6,470.5 358.3,471.0 352.2,471.7 346.2,472.6 340.2,473.8 334.3,475.3 328.4,477.1 322.4,479.0 316.3,481.0 310.0,483.1 303.6,485.0 297.0,486.7 290.4,487.9 283.6,488.7 276.9,488.9 270.1,488.5 263.6,487.4 257.1,485.6 251.0,483.1 245.1,480.1 239.5,476.5 234.3,472.5 229.3,468.2 224.6,463.7 220.1,459.2 215.8,454.7 211.5,450.4 207.2,446.2 202.7,442.3 198.2,438.6 193.4,435.2 188.3,431.9 183.1,428.8 177.6,425.7 172.0,422.5 166.4,419.2 160.8,415.7 155.3,412.0 150.2,407.9 145.4,403.4 141.2,398.6 137.6,393.4 134.6,387.8 132.4,382.0 130.8,376.0 129.9,369.8 129.7,363.6 129.9,357.3 130.6,351.1 131.5,345.0 132.6,338.9 133.7,333.1 134.6,327.3 135.4,321.6 135.9,316.0 136.1,310.4 135.9,304.8 135.5,299.1 134.8,293.4 134.1,287.5 133.3,281.4 132.6,275.3 132.1,269.1 132.0,262.8 132.5,256.6 133.5,250.4 135.1,244.4 137.5,238.6 140.5,233.1 144.2,228.0 148.6,223.2 153.4,218.8 158.7,214.8 164.2,211.2 170.0,207.9 175.8,204.8 181.5,201.9 187.2,199.0 192.6,196.1 197.8,193.0 202.9,189.8 207.7,186.4 212.3,182.7 216.8,178.8 221.3,174.7 225.9,170.4 230.5,166.1 235.4,161.8 240.5,157.6 245.8,153.8 251.5,150.3 257.4,147.3 263.6,145.0 270.1,143.2 276.7,142.2 283.4,141.9 290.1,142.2 296.9,143.1 303.5,144.5 310.0,146.4 316.4,148.5 322.6,150.8 328.6,153.1 334.5,155.3 340.4,157.3 346.2,159.1 352.1,160.7 358.0,161.9 364.1,162.9 370.3,163.6 376.6,164.3 383.1,164.9 389.8,165.6 396.4,166.4 403.1,167.6 409.7,169.2 416.1,171.2 422.3,173.8 428.1,177.0 433.4,180.7 438.3,184.9 442.6,189.7 446.4,194.9 449.6,200.3 452.4,206.1 454.8,211.9 456.9,217.8 458.8,223.7 460.6,229.4 462.4,235.0 464.4,240.5 466.5,245.8 469.0,250.9 471.7,255.9 474.7,260.8 478.0,265.8 481.5,270.8 485.0,275.8 488.6,281.1 491.9,286.5 495.0,292.1 497.7,297.9 499.7,303.8 501.2,309.9 501.9,316.0" fill="none" stroke="#7CE0A6" stroke-width="0.7" opacity="0.22"/><polyline points="511.7,316.0 510.6,322.4 509.1,328.8 507.2,335.1 505.0,341.2 502.4,347.2 499.6,353.1 496.5,358.8 493.3,364.4 490.1,369.8 486.7,375.2 483.4,380.4 480.0,385.6 476.7,390.8 473.4,395.9 470.2,401.1 467.0,406.3 463.9,411.5 460.7,416.7 457.5,422.1 454.3,427.4 451.0,432.8 447.5,438.1 443.8,443.5 439.9,448.8 435.8,454.0 431.4,459.0 426.8,463.9 421.8,468.5 416.5,472.8 410.9,476.9 405.1,480.5 398.9,483.8 392.6,486.6 386.0,489.0 379.2,491.0 372.3,492.5 365.3,493.5 358.3,494.2 351.2,494.5 344.2,494.4 337.2,494.0 330.3,493.3 323.4,492.4 316.7,491.4 310.0,490.2 303.4,488.9 297.0,487.6 290.5,486.3 284.2,485.0 277.9,483.7 271.5,482.5 265.2,481.3 258.8,480.1 252.4,479.0 246.0,477.9 239.4,476.7 232.9,475.4 226.2,474.0 219.6,472.5 212.9,470.7 206.3,468.7 199.7,466.5 193.2,463.9 186.9,460.9 180.8,457.7 174.9,454.0 169.3,450.0 164.0,445.7 159.1,441.0 154.6,435.9 150.5,430.6 146.8,425.1 143.6,419.3 140.7,413.3 138.2,407.2 136.2,401.0 134.4,394.8 133.0,388.5 131.8,382.3 130.8,376.0 129.9,369.8 129.2,363.7 128.6,357.6 128.0,351.6 127.3,345.6 126.7,339.7 126.0,333.8 125.3,327.9 124.5,322.0 123.7,316.0 122.9,310.0 122.1,303.9 121.4,297.8 120.7,291.5 120.3,285.2 120.0,278.9 120.1,272.4 120.4,266.0 121.1,259.5 122.1,253.1 123.6,246.7 125.6,240.5 128.0,234.3 130.9,228.4 134.2,222.6 138.0,217.1 142.2,211.9 146.8,206.9 151.8,202.3 157.1,197.9 162.6,193.9 168.4,190.2 174.3,186.7 180.3,183.5 186.4,180.5 192.6,177.7 198.7,175.1 204.8,172.6 210.9,170.1 216.9,167.7 222.9,165.3 228.9,162.9 234.8,160.5 240.6,158.0 246.5,155.5 252.4,153.0 258.4,150.4 264.4,147.8 270.6,145.3 276.8,142.8 283.2,140.5 289.7,138.3 296.3,136.3 303.1,134.6 310.0,133.2 317.0,132.2 324.0,131.5 331.1,131.3 338.2,131.5 345.2,132.2 352.2,133.3 359.1,134.9 365.8,137.0 372.3,139.5 378.7,142.4 384.8,145.7 390.7,149.3 396.3,153.2 401.7,157.3 406.9,161.6 411.9,166.0 416.7,170.5 421.3,175.1 425.8,179.7 430.2,184.2 434.5,188.8 438.8,193.3 443.2,197.7 447.5,202.1 451.9,206.5 456.3,210.9 460.7,215.3 465.2,219.7 469.7,224.2 474.3,228.7 478.7,233.5 483.1,238.3 487.4,243.3 491.5,248.5 495.4,253.9 498.9,259.5 502.2,265.3 505.1,271.3 507.5,277.4 509.4,283.6 510.9,290.0 511.9,296.5 512.3,303.0 512.3,309.5 511.7,316.0" fill="none" stroke="#7CE0A6" stroke-width="0.7" opacity="0.22"/><polyline points="517.9,316.0 515.9,322.6 513.7,329.1 511.2,335.5 508.6,341.7 506.0,347.8 503.5,353.8 501.0,359.8 498.6,365.8 496.4,371.7 494.3,377.7 492.4,383.8 490.6,390.0 488.8,396.2 487.0,402.6 485.0,409.0 483.0,415.4 480.7,421.9 478.0,428.3 475.0,434.6 471.6,440.7 467.7,446.6 463.4,452.2 458.5,457.5 453.2,462.3 447.4,466.7 441.3,470.6 434.8,474.0 428.0,477.0 421.1,479.5 413.9,481.6 406.7,483.4 399.5,484.8 392.3,486.0 385.1,487.1 378.1,488.1 371.1,489.0 364.3,490.1 357.5,491.2 350.8,492.4 344.1,493.7 337.4,495.2 330.7,496.9 323.9,498.5 317.0,500.3 310.0,502.0 302.9,503.5 295.6,504.9 288.3,506.0 280.9,506.8 273.4,507.1 265.9,507.0 258.4,506.3 251.1,505.1 243.9,503.2 236.9,500.9 230.1,497.9 223.6,494.5 217.5,490.6 211.6,486.2 206.1,481.6 200.8,476.7 195.8,471.7 191.1,466.6 186.5,461.4 182.1,456.3 177.7,451.2 173.3,446.3 168.9,441.4 164.3,436.7 159.7,432.0 155.0,427.4 150.1,422.9 145.1,418.3 140.0,413.7 135.0,409.0 129.9,404.1 125.0,399.0 120.3,393.7 115.8,388.2 111.8,382.4 108.2,376.3 105.1,370.1 102.6,363.6 100.7,356.9 99.4,350.2 98.8,343.3 98.8,336.4 99.4,329.5 100.5,322.7 102.1,316.0 104.1,309.4 106.3,302.9 108.8,296.5 111.4,290.3 114.0,284.2 116.5,278.2 119.0,272.2 121.4,266.2 123.6,260.3 125.7,254.3 127.6,248.2 129.4,242.0 131.2,235.8 133.0,229.4 135.0,223.0 137.0,216.6 139.3,210.1 142.0,203.7 145.0,197.4 148.4,191.3 152.3,185.4 156.6,179.8 161.5,174.5 166.8,169.7 172.6,165.3 178.7,161.4 185.2,158.0 192.0,155.0 198.9,152.5 206.1,150.4 213.3,148.6 220.5,147.2 227.7,146.0 234.9,144.9 241.9,143.9 248.9,143.0 255.7,141.9 262.5,140.8 269.2,139.6 275.9,138.3 282.6,136.8 289.3,135.1 296.1,133.5 303.0,131.7 310.0,130.0 317.1,128.5 324.4,127.1 331.7,126.0 339.1,125.2 346.6,124.9 354.1,125.0 361.6,125.7 368.9,126.9 376.1,128.8 383.1,131.1 389.9,134.1 396.4,137.5 402.5,141.4 408.4,145.8 413.9,150.4 419.2,155.3 424.2,160.3 428.9,165.4 433.5,170.6 437.9,175.7 442.3,180.8 446.7,185.7 451.1,190.6 455.7,195.3 460.3,200.0 465.0,204.6 469.9,209.1 474.9,213.7 480.0,218.3 485.0,223.0 490.1,227.9 495.0,233.0 499.7,238.3 504.2,243.8 508.2,249.6 511.8,255.7 514.9,261.9 517.4,268.4 519.3,275.1 520.6,281.8 521.2,288.7 521.2,295.6 520.6,302.5 519.5,309.3 517.9,316.0" fill="none" stroke="#7CE0A6" stroke-width="0.7" opacity="0.22"/><circle cx="310" cy="316" r="132" fill="url(#orb)"/><circle cx="310" cy="316" r="132" fill="none" stroke="#0C0C0C" stroke-opacity="0.25" stroke-width="6"/><ellipse cx="266" cy="266" rx="52" ry="34" fill="#ffffff" opacity="0.35" transform="rotate(-28 266 266)"/><text x="310" y="388" text-anchor="middle" font-family="Kanit, 'Segoe UI', system-ui, sans-serif" font-weight="900" font-size="196" fill="#0C0C0C" fill-opacity="0.78">$</text><ellipse cx="150" cy="663" rx="66" ry="26.400000000000002" fill="url(#edgeE9C25C)"/><ellipse cx="150" cy="648" rx="66" ry="26.400000000000002" fill="url(#edgeE9C25C)"/><ellipse cx="150" cy="633" rx="66" ry="26.400000000000002" fill="url(#edgeE9C25C)"/><ellipse cx="150" cy="618" rx="66" ry="26.400000000000002" fill="url(#edgeE9C25C)"/><ellipse cx="150" cy="603" rx="66" ry="26.400000000000002" fill="url(#edgeE9C25C)"/><ellipse cx="150" cy="588" rx="66" ry="26.400000000000002" fill="url(#faceE9C25C)"/><ellipse cx="150" cy="588" rx="54.12" ry="21.648" fill="none" stroke="#0C0C0C" stroke-opacity="0.35" stroke-width="1.5"/><text x="150" y="596.976" text-anchor="middle" font-family="Kanit, 'Segoe UI', system-ui, sans-serif" font-weight="900" font-size="54" fill="#0C0C0C" fill-opacity="0.72" transform="scale(1,0.62)" transform-origin="150 588">€</text><ellipse cx="470" cy="649" rx="60" ry="24.0" fill="url(#edge8FD9F0)"/><ellipse cx="470" cy="634" rx="60" ry="24.0" fill="url(#edge8FD9F0)"/><ellipse cx="470" cy="619" rx="60" ry="24.0" fill="url(#edge8FD9F0)"/><ellipse cx="470" cy="604" rx="60" ry="24.0" fill="url(#face8FD9F0)"/><ellipse cx="470" cy="604" rx="49.199999999999996" ry="19.68" fill="none" stroke="#0C0C0C" stroke-opacity="0.35" stroke-width="1.5"/><text x="470" y="612.16" text-anchor="middle" font-family="Kanit, 'Segoe UI', system-ui, sans-serif" font-weight="900" font-size="49" fill="#0C0C0C" fill-opacity="0.72" transform="scale(1,0.62)" transform-origin="470 604">¥</text><ellipse cx="310" cy="704" rx="78" ry="31.200000000000003" fill="url(#edge7CE0A6)"/><ellipse cx="310" cy="688" rx="78" ry="31.200000000000003" fill="url(#edge7CE0A6)"/><ellipse cx="310" cy="672" rx="78" ry="31.200000000000003" fill="url(#edge7CE0A6)"/><ellipse cx="310" cy="656" rx="78" ry="31.200000000000003" fill="url(#edge7CE0A6)"/><ellipse cx="310" cy="640" rx="78" ry="31.200000000000003" fill="url(#face7CE0A6)"/><ellipse cx="310" cy="640" rx="63.959999999999994" ry="25.584" fill="none" stroke="#0C0C0C" stroke-opacity="0.35" stroke-width="1.5"/><text x="310" y="650.608" text-anchor="middle" font-family="Kanit, 'Segoe UI', system-ui, sans-serif" font-weight="900" font-size="64" fill="#0C0C0C" fill-opacity="0.72" transform="scale(1,0.62)" transform-origin="310 640">£</text></svg>